<?xml version="1.0" encoding="UTF-8" standalone="no"?>
<svg
   height="18"
   style="clip-rule:evenodd;fill-rule:evenodd;stroke-linejoin:round;stroke-miterlimit:2"
   version="1.1"
   viewBox="0 0 18 18"
   width="18"
   xml:space="preserve"
   id="svg4"
   sodipodi:docname="facebook-icon.svg"
   inkscape:version="1.1 (c68e22c387, 2021-05-23)"
   xmlns:inkscape="http://www.inkscape.org/namespaces/inkscape"
   xmlns:sodipodi="http://sodipodi.sourceforge.net/DTD/sodipodi-0.dtd"
   xmlns="http://www.w3.org/2000/svg"
   xmlns:svg="http://www.w3.org/2000/svg"><defs
     id="defs8" /><sodipodi:namedview
     id="namedview6"
     pagecolor="#ffffff"
     bordercolor="#666666"
     borderopacity="1.0"
     inkscape:pageshadow="2"
     inkscape:pageopacity="0.0"
     inkscape:pagecheckerboard="0"
     showgrid="false"
     inkscape:zoom="12.6875"
     inkscape:cx="25.812808"
     inkscape:cy="25.891626"
     inkscape:window-width="1920"
     inkscape:window-height="1017"
     inkscape:window-x="1912"
     inkscape:window-y="118"
     inkscape:window-maximized="1"
     inkscape:current-layer="svg4"
     width="32px" /><path
     d="M 15.800836,0 C 17.014606,0 18,0.98542969 18,2.1991641 V 15.800836 C 18,17.01457 17.01457,18 15.800836,18 H 12.05782 v -6.782168 h 2.341407 l 0.4455,-2.9046445 H 12.05782 V 6.4282146 c 0,-0.7946365 0.389286,-1.5692341 1.637578,-1.5692341 H 14.9625 V 2.3860898 c 0,0 -1.149961,-0.1962421 -2.249367,-0.1962421 -2.295281,0 -3.7954689,1.3910976 -3.7954689,3.9095159 V 8.3131875 H 6.3662693 V 11.217832 H 8.9176641 V 18 h -6.7185 C 0.98542969,18 0,17.01457 0,15.800836 V 2.1991641 C 0,0.98542969 0.98539453,0 2.1991641,0 Z"
     id="path2"
     style="fill:#ffffff;stroke-width:0.0351562" /></svg>
