<?xml version="1.0" encoding="UTF-8" standalone="no"?>
<!-- Generator: Adobe Illustrator 21.0.2, SVG Export Plug-In . SVG Version: 6.00 Build 0)  -->

<svg
   version="1.1"
   id="Layer_1"
   x="0px"
   y="0px"
   viewBox="0 0 17.999999 18"
   enable-background="new 0 0 56.7 56.7"
   xml:space="preserve"
   sodipodi:docname="insta-icon.svg"
   inkscape:version="1.1 (c68e22c387, 2021-05-23)"
   width="18"
   height="18"
   xmlns:inkscape="http://www.inkscape.org/namespaces/inkscape"
   xmlns:sodipodi="http://sodipodi.sourceforge.net/DTD/sodipodi-0.dtd"
   xmlns="http://www.w3.org/2000/svg"
   xmlns:svg="http://www.w3.org/2000/svg"><defs
   id="defs13" /><sodipodi:namedview
   id="namedview11"
   pagecolor="#ffffff"
   bordercolor="#666666"
   borderopacity="1.0"
   inkscape:pageshadow="2"
   inkscape:pageopacity="0.0"
   inkscape:pagecheckerboard="0"
   showgrid="false"
   inkscape:zoom="14.320987"
   inkscape:cx="28.315088"
   inkscape:cy="8.0650866"
   inkscape:window-width="1920"
   inkscape:window-height="1017"
   inkscape:window-x="1912"
   inkscape:window-y="118"
   inkscape:window-maximized="1"
   inkscape:current-layer="Layer_1"
   width="32.7px" />
<g
   id="g8"
   transform="matrix(0.36290323,0,0,0.36290323,-1.233872,-1.7419365)"
   style="fill:#ffffff">
	<path
   d="m 28.2,16.7 c -7,0 -12.8,5.7 -12.8,12.8 0,7.1 5.7,12.8 12.8,12.8 7.1,0 12.8,-5.8 12.8,-12.8 0,-7 -5.8,-12.8 -12.8,-12.8 z m 0,21 C 23.7,37.7 20,34 20,29.5 c 0,-4.5 3.7,-8.2 8.2,-8.2 4.5,0 8.2,3.7 8.2,8.2 0,4.5 -3.7,8.2 -8.2,8.2 z"
   id="path2"
   style="fill:#ffffff" />
	<circle
   cx="41.5"
   cy="16.4"
   r="2.9000001"
   id="circle4"
   style="fill:#ffffff" />
	<path
   d="M 49,8.9 C 46.4,6.2 42.7,4.8 38.5,4.8 H 17.9 C 9.2,4.8 3.4,10.6 3.4,19.3 v 20.5 c 0,4.3 1.4,8 4.2,10.7 2.7,2.6 6.3,3.9 10.4,3.9 h 20.4 c 4.3,0 7.9,-1.4 10.5,-3.9 C 51.6,47.9 53,44.2 53,39.9 V 19.3 C 53,15.1 51.6,11.5 49,8.9 Z m -0.4,31 c 0,3.1 -1.1,5.6 -2.9,7.3 -1.8,1.7 -4.3,2.6 -7.3,2.6 H 18 c -3,0 -5.5,-0.9 -7.3,-2.6 C 8.9,45.4 8,42.9 8,39.8 V 19.3 C 8,16.3 8.9,13.8 10.7,12 12.4,10.3 15,9.4 18,9.4 h 20.6 c 3,0 5.5,0.9 7.3,2.7 1.7,1.8 2.7,4.3 2.7,7.2 z"
   id="path6"
   style="fill:#ffffff" />
</g>
</svg>
